<svg version="1.1" id="Layer_1" xmlns="http://www.w3.org/2000/svg" xmlns:xlink="http://www.w3.org/1999/xlink" x="0px" y="0px"
	 width="100%" viewBox="0 0 1563 1563" enable-background="new 0 0 1563 1563" xml:space="preserve">
<path fill="none" opacity="1.000000" stroke="none" 
	d="
M184.832489,883.763794 
	C189.078781,906.464539 192.394669,929.387756 197.758560,951.821289 
	C210.211594,1003.903992 230.204330,1053.131104 256.391632,1099.863892 
	C291.028229,1161.674561 335.250153,1215.670776 388.758972,1262.007935 
	C430.922668,1298.520386 477.389893,1328.469116 527.963379,1352.111694 
	C598.936279,1385.290894 673.581177,1403.909668 751.708984,1407.680908 
	C801.542358,1410.086426 851.150635,1407.043823 900.272766,1397.151367 
	C966.464050,1383.821533 1028.777588,1360.467163 1087.038574,1326.426025 
	C1149.515259,1289.921753 1203.689697,1243.563965 1249.603516,1187.651611 
	C1287.481567,1141.525269 1317.794800,1090.811035 1340.656372,1035.657104 
	C1368.078003,969.501648 1383.017578,900.571472 1385.773071,829.084045 
	C1387.360107,787.911682 1384.928467,746.919800 1378.134155,706.189026 
	C1368.652344,649.346252 1351.472534,594.983704 1326.462524,543.115906 
	C1302.818726,494.081665 1272.912354,449.178406 1237.034302,408.195038 
	C1202.822876,369.115387 1164.325195,334.933136 1121.399658,305.750214 
	C1071.202759,271.624084 1017.029114,245.751724 958.954041,228.064987 
	C914.210693,214.438461 868.524780,205.700531 821.817871,203.321640 
	C799.235474,202.171494 776.551758,202.746384 753.917480,202.947647 
	C725.537903,203.200012 697.485840,207.152832 669.708374,212.487030 
	C599.428894,225.983002 533.466614,251.061035 472.121094,288.030640 
	C407.479370,326.986725 352.116364,376.447571 305.825043,435.992798 
	C261.012726,493.635590 227.936157,557.468994 206.339859,627.216919 
	C190.656937,677.867004 181.700867,729.721741 180.198166,782.709106 
	C179.570847,804.828979 180.411362,827.012024 181.229202,849.142517 
	C181.645813,860.415344 183.489517,871.635437 184.832489,883.763794 
z"/>
<path fill="#B952EA" opacity="1.000000" stroke="none" 
	d="
M184.760315,883.321533 
	C183.489517,871.635437 181.645813,860.415344 181.229202,849.142517 
	C180.411362,827.012024 179.570847,804.828979 180.198166,782.709106 
	C181.700867,729.721741 190.656937,677.867004 206.339859,627.216919 
	C227.936157,557.468994 261.012726,493.635590 305.825043,435.992798 
	C352.116364,376.447571 407.479370,326.986725 472.121094,288.030640 
	C533.466614,251.061035 599.428894,225.983002 669.708374,212.487030 
	C697.485840,207.152832 725.537903,203.200012 753.917480,202.947647 
	C776.551758,202.746384 799.235474,202.171494 821.817871,203.321640 
	C868.524780,205.700531 914.210693,214.438461 958.954041,228.064987 
	C1017.029114,245.751724 1071.202759,271.624084 1121.399658,305.750214 
	C1164.325195,334.933136 1202.822876,369.115387 1237.034302,408.195038 
	C1272.912354,449.178406 1302.818726,494.081665 1326.462524,543.115906 
	C1351.472534,594.983704 1368.652344,649.346252 1378.134155,706.189026 
	C1384.928467,746.919800 1387.360107,787.911682 1385.773071,829.084045 
	C1383.017578,900.571472 1368.078003,969.501648 1340.656372,1035.657104 
	C1317.794800,1090.811035 1287.481567,1141.525269 1249.603516,1187.651611 
	C1203.689697,1243.563965 1149.515259,1289.921753 1087.038574,1326.426025 
	C1028.777588,1360.467163 966.464050,1383.821533 900.272766,1397.151367 
	C851.150635,1407.043823 801.542358,1410.086426 751.708984,1407.680908 
	C673.581177,1403.909668 598.936279,1385.290894 527.963379,1352.111694 
	C477.389893,1328.469116 430.922668,1298.520386 388.758972,1262.007935 
	C335.250153,1215.670776 291.028229,1161.674561 256.391632,1099.863892 
	C230.204330,1053.131104 210.211594,1003.903992 197.758560,951.821289 
	C192.394669,929.387756 189.078781,906.464539 184.760315,883.321533 
M1114.672607,1023.827820 
	C1105.285400,993.287231 1090.857910,965.810242 1067.374390,943.466125 
	C1013.784851,892.476807 960.616333,841.043884 906.887329,790.202759 
	C863.728149,749.363220 812.165222,732.684937 753.287170,740.380005 
	C713.040649,745.639954 678.690613,763.636902 649.662598,791.959717 
	C598.859253,841.528748 548.199280,891.247559 497.055298,940.463135 
	C473.994080,962.654846 457.315613,988.353333 447.284424,1018.779297 
	C434.260101,1058.283813 434.641541,1097.181030 449.813446,1135.985107 
	C457.440491,1155.492188 469.844879,1171.968750 482.237366,1188.462891 
	C514.178955,1230.976318 556.573730,1253.954346 609.890747,1256.291626 
	C640.852356,1257.648804 669.306274,1249.228149 696.532532,1234.965576 
	C707.655273,1229.138916 719.423157,1224.150757 731.413574,1220.455322 
	C756.380188,1212.760742 782.007141,1210.902344 807.947266,1215.007324 
	C829.528015,1218.422363 849.599060,1225.968384 868.948364,1236.034790 
	C897.661072,1250.972534 928.189758,1257.329834 960.631592,1254.120117 
	C991.932373,1251.023438 1019.857178,1239.760620 1044.910034,1220.886963 
	C1063.729370,1206.709473 1077.353271,1188.032104 1090.591309,1168.992065 
	C1121.391724,1124.692383 1129.649170,1076.576416 1114.672607,1023.827820 
M1018.296021,600.833923 
	C1034.424927,558.359497 1040.554688,514.569458 1034.778687,469.410675 
	C1031.520020,443.933044 1024.051392,419.719147 1010.414307,397.667358 
	C978.301392,345.739716 922.134583,333.857697 871.936584,368.488159 
	C851.138428,382.836334 834.907654,401.556854 822.233643,423.160278 
	C790.194336,477.772888 778.449280,536.690979 787.296570,599.377136 
	C791.325439,627.923401 800.945618,654.685181 819.065857,677.569214 
	C841.620605,706.053406 870.740234,719.254578 907.334534,713.070007 
	C929.763794,709.279419 948.365662,697.798645 964.758911,682.653137 
	C989.194031,660.077820 1005.992065,632.350342 1018.296021,600.833923 
M745.403259,661.918640 
	C760.881104,636.319885 768.793213,608.299805 770.738464,578.697388 
	C773.976257,529.423828 763.616394,483.022858 738.789490,440.217102 
	C722.426270,412.004059 700.791260,388.867645 670.879150,374.573822 
	C631.695801,355.849640 588.109619,364.116669 558.394531,395.786865 
	C533.917725,421.873962 522.608521,453.844910 518.171753,488.517395 
	C513.176819,527.552124 518.334229,565.601196 532.062195,602.383667 
	C547.383728,643.435669 571.142944,678.090393 610.200073,700.094727 
	C636.498047,714.910645 664.358826,717.870178 692.925415,707.286804 
	C715.681152,698.856140 732.125610,682.657776 745.403259,661.918640 
M548.101807,677.381104 
	C540.147705,660.059265 530.402222,643.824890 518.231201,629.136047 
	C496.324951,602.697876 470.271637,582.159790 436.673035,572.530579 
	C395.915680,560.849731 355.487610,574.899231 332.441833,608.979187 
	C317.386932,631.242310 311.592468,656.389771 311.410278,682.792847 
	C311.078247,730.910339 326.749451,773.920959 355.078491,812.416687 
	C374.050232,838.196960 397.439880,858.914734 427.317596,871.364929 
	C455.986542,883.311279 484.928711,885.254150 513.116028,870.314697 
	C545.592590,853.101990 560.540771,823.759888 565.843384,788.926819 
	C571.726746,750.278320 564.272339,713.440552 548.101807,677.381104 
M1237.108521,648.370850 
	C1235.540527,645.437927 1234.067017,642.449707 1232.390137,639.580383 
	C1207.703613,597.340393 1162.236816,580.772400 1116.390869,597.856262 
	C1087.606689,608.582275 1065.920166,628.514954 1048.861816,653.518738 
	C1019.348816,696.778137 1006.912720,744.789612 1011.236206,796.897339 
	C1013.412415,823.125427 1021.167358,847.771790 1036.133911,869.773865 
	C1061.861084,907.594910 1104.111694,921.636841 1146.960205,906.187317 
	C1174.355225,896.309875 1195.279175,877.737732 1212.302856,854.684509 
	C1236.089111,822.473816 1249.352295,786.125732 1253.156738,746.322083 
	C1256.385132,712.544678 1252.539062,679.871338 1237.108521,648.370850 
z"/>
<path fill="#FEF102" opacity="1.000000" stroke="none" 
	d="
M1114.789551,1024.212646 
	C1129.649170,1076.576416 1121.391724,1124.692383 1090.591309,1168.992065 
	C1077.353271,1188.032104 1063.729370,1206.709473 1044.910034,1220.886963 
	C1019.857178,1239.760620 991.932373,1251.023438 960.631592,1254.120117 
	C928.189758,1257.329834 897.661072,1250.972534 868.948364,1236.034790 
	C849.599060,1225.968384 829.528015,1218.422363 807.947266,1215.007324 
	C782.007141,1210.902344 756.380188,1212.760742 731.413574,1220.455322 
	C719.423157,1224.150757 707.655273,1229.138916 696.532532,1234.965576 
	C669.306274,1249.228149 640.852356,1257.648804 609.890747,1256.291626 
	C556.573730,1253.954346 514.178955,1230.976318 482.237366,1188.462891 
	C469.844879,1171.968750 457.440491,1155.492188 449.813446,1135.985107 
	C434.641541,1097.181030 434.260101,1058.283813 447.284424,1018.779297 
	C457.315613,988.353333 473.994080,962.654846 497.055298,940.463135 
	C548.199280,891.247559 598.859253,841.528748 649.662598,791.959717 
	C678.690613,763.636902 713.040649,745.639954 753.287170,740.380005 
	C812.165222,732.684937 863.728149,749.363220 906.887329,790.202759 
	C960.616333,841.043884 1013.784851,892.476807 1067.374390,943.466125 
	C1090.857910,965.810242 1105.285400,993.287231 1114.789551,1024.212646 
M776.719482,1183.352051 
	C790.646362,1184.410400 804.696594,1184.644897 818.472900,1186.708374 
	C842.737976,1190.342896 864.565247,1201.030151 886.711243,1211.185059 
	C938.423706,1234.897339 987.396851,1228.852051 1031.523804,1192.921021 
	C1052.929321,1175.491211 1067.901978,1152.372681 1080.164062,1127.736938 
	C1087.129639,1113.742432 1091.114136,1098.649780 1091.802002,1083.104736 
	C1093.869141,1036.395386 1078.821167,995.962830 1044.964233,963.356445 
	C992.282532,912.620728 939.281677,862.215698 886.304993,811.787292 
	C850.875732,778.062256 808.585022,763.717468 760.086121,769.325806 
	C725.390503,773.337891 695.749146,788.566345 670.718384,813.007751 
	C619.931885,862.598206 569.181824,912.229004 518.013062,961.423340 
	C497.847015,980.811035 483.471527,1003.214783 475.095490,1029.949219 
	C464.949371,1062.333374 465.149017,1094.042236 477.897156,1125.640747 
	C484.663788,1142.413086 495.781311,1156.353882 506.367767,1170.643311 
	C547.456665,1226.104736 617.501221,1242.405396 678.551514,1210.241211 
	C709.107178,1194.142944 741.198486,1184.494141 776.719482,1183.352051 
z"/>
<path fill="#FEF102" opacity="1.000000" stroke="none" 
	d="
M1018.168274,601.200562 
	C1005.992065,632.350342 989.194031,660.077820 964.758911,682.653137 
	C948.365662,697.798645 929.763794,709.279419 907.334534,713.070007 
	C870.740234,719.254578 841.620605,706.053406 819.065857,677.569214 
	C800.945618,654.685181 791.325439,627.923401 787.296570,599.377136 
	C778.449280,536.690979 790.194336,477.772888 822.233643,423.160278 
	C834.907654,401.556854 851.138428,382.836334 871.936584,368.488159 
	C922.134583,333.857697 978.301392,345.739716 1010.414307,397.667358 
	C1024.051392,419.719147 1031.520020,443.933044 1034.778687,469.410675 
	C1040.554688,514.569458 1034.424927,558.359497 1018.168274,601.200562 
M840.201538,656.257996 
	C863.394409,686.793274 893.559082,693.139709 926.718750,673.873840 
	C946.951782,662.118347 961.626526,644.574768 973.362183,624.762146 
	C1001.659973,576.988770 1011.839294,525.264038 1004.816467,470.293701 
	C1001.827942,446.901550 994.144897,425.006470 979.951111,405.820557 
	C959.081726,377.611023 927.575745,370.855164 896.924805,387.991547 
	C878.317261,398.394623 863.974548,413.490326 852.553589,431.090088 
	C820.666626,480.227875 809.308228,534.297852 816.310730,592.182983 
	C819.075684,615.038635 826.455994,636.544556 840.201538,656.257996 
z"/>
<path fill="#FEF102" opacity="1.000000" stroke="none" 
	d="
M745.220093,662.233032 
	C732.125610,682.657776 715.681152,698.856140 692.925415,707.286804 
	C664.358826,717.870178 636.498047,714.910645 610.200073,700.094727 
	C571.142944,678.090393 547.383728,643.435669 532.062195,602.383667 
	C518.334229,565.601196 513.176819,527.552124 518.171753,488.517395 
	C522.608521,453.844910 533.917725,421.873962 558.394531,395.786865 
	C588.109619,364.116669 631.695801,355.849640 670.879150,374.573822 
	C700.791260,388.867645 722.426270,412.004059 738.789490,440.217102 
	C763.616394,483.022858 773.976257,529.423828 770.738464,578.697388 
	C768.793213,608.299805 760.881104,636.319885 745.220093,662.233032 
M551.446655,472.097321 
	C540.775879,517.711121 546.553772,561.739746 565.012085,604.263367 
	C576.833740,631.497681 594.052490,654.753967 619.582092,670.832825 
	C653.350464,692.100525 689.981812,685.956055 713.841370,655.322937 
	C724.647766,641.448730 731.604614,625.662964 735.862305,608.747681 
	C747.927979,560.812134 741.844238,514.578491 721.360168,470.115234 
	C708.339722,441.852844 689.639282,418.271088 661.697937,403.043671 
	C637.050903,389.611603 608.032593,392.376526 586.582886,410.402649 
	C567.500916,426.438843 558.071899,447.996552 551.446655,472.097321 
z"/>
<path fill="#FEF102" opacity="1.000000" stroke="none" 
	d="
M548.261719,677.721558 
	C564.272339,713.440552 571.726746,750.278320 565.843384,788.926819 
	C560.540771,823.759888 545.592590,853.101990 513.116028,870.314697 
	C484.928711,885.254150 455.986542,883.311279 427.317596,871.364929 
	C397.439880,858.914734 374.050232,838.196960 355.078491,812.416687 
	C326.749451,773.920959 311.078247,730.910339 311.410278,682.792847 
	C311.592468,656.389771 317.386932,631.242310 332.441833,608.979187 
	C355.487610,574.899231 395.915680,560.849731 436.673035,572.530579 
	C470.271637,582.159790 496.324951,602.697876 518.231201,629.136047 
	C530.402222,643.824890 540.147705,660.059265 548.261719,677.721558 
M460.604919,850.031433 
	C486.707642,852.945068 507.783234,844.571472 522.541443,822.260559 
	C533.886841,805.108948 537.734985,785.726318 537.747253,765.666443 
	C537.775452,719.593079 521.199951,679.472168 491.809998,644.576233 
	C474.211670,623.681030 452.811432,607.935730 425.881470,600.774841 
	C396.914642,593.072327 369.047089,604.591187 354.025665,630.518555 
	C344.841492,646.370789 341.306488,663.752563 341.089874,681.752136 
	C340.505188,730.336182 358.170868,772.165710 389.925995,808.194763 
	C408.617645,829.402222 431.260864,844.744202 460.604919,850.031433 
z"/>
<path fill="#FEF102" opacity="1.000000" stroke="none" 
	d="
M1237.285278,648.699707 
	C1252.539062,679.871338 1256.385132,712.544678 1253.156738,746.322083 
	C1249.352295,786.125732 1236.089111,822.473816 1212.302856,854.684509 
	C1195.279175,877.737732 1174.355225,896.309875 1146.960205,906.187317 
	C1104.111694,921.636841 1061.861084,907.594910 1036.133911,869.773865 
	C1021.167358,847.771790 1013.412415,823.125427 1011.236206,796.897339 
	C1006.912720,744.789612 1019.348816,696.778137 1048.861816,653.518738 
	C1065.920166,628.514954 1087.606689,608.582275 1116.390869,597.856262 
	C1162.236816,580.772400 1207.703613,597.340393 1232.390137,639.580383 
	C1234.067017,642.449707 1235.540527,645.437927 1237.285278,648.699707 
M1042.509766,749.143860 
	C1041.826172,755.429077 1040.848511,761.698547 1040.509155,768.002258 
	C1038.936890,797.199280 1043.485107,825.108215 1059.097168,850.401306 
	C1077.593628,880.367432 1109.322388,890.175781 1141.767944,876.350403 
	C1161.092285,868.116211 1175.839478,854.238098 1187.881226,837.644775 
	C1217.325684,797.070923 1228.820190,751.514709 1222.763184,701.829163 
	C1220.061157,679.665894 1212.321777,659.144653 1197.137207,642.220459 
	C1181.767700,625.090271 1162.580200,617.921143 1139.675415,621.984924 
	C1122.588257,625.016602 1108.206299,633.607910 1095.636597,645.111694 
	C1065.267944,672.905396 1049.308838,708.233459 1042.509766,749.143860 
z"/>
<path fill="#B952EA" opacity="1.000000" stroke="none" 
	d="
M776.247192,1183.374756 
	C741.198486,1184.494141 709.107178,1194.142944 678.551514,1210.241211 
	C617.501221,1242.405396 547.456665,1226.104736 506.367767,1170.643311 
	C495.781311,1156.353882 484.663788,1142.413086 477.897156,1125.640747 
	C465.149017,1094.042236 464.949371,1062.333374 475.095490,1029.949219 
	C483.471527,1003.214783 497.847015,980.811035 518.013062,961.423340 
	C569.181824,912.229004 619.931885,862.598206 670.718384,813.007751 
	C695.749146,788.566345 725.390503,773.337891 760.086121,769.325806 
	C808.585022,763.717468 850.875732,778.062256 886.304993,811.787292 
	C939.281677,862.215698 992.282532,912.620728 1044.964233,963.356445 
	C1078.821167,995.962830 1093.869141,1036.395386 1091.802002,1083.104736 
	C1091.114136,1098.649780 1087.129639,1113.742432 1080.164062,1127.736938 
	C1067.901978,1152.372681 1052.929321,1175.491211 1031.523804,1192.921021 
	C987.396851,1228.852051 938.423706,1234.897339 886.711243,1211.185059 
	C864.565247,1201.030151 842.737976,1190.342896 818.472900,1186.708374 
	C804.696594,1184.644897 790.646362,1184.410400 776.247192,1183.374756 
M744.330872,936.146362 
	C732.059998,928.337219 718.732605,924.585205 704.112732,924.931519 
	C690.792297,925.247070 677.458008,924.939758 664.130615,925.024048 
	C657.808533,925.063965 651.433655,924.920349 645.179077,925.666992 
	C634.210388,926.976318 630.048645,931.818909 630.031494,942.953247 
	C629.953796,993.432556 629.931152,1043.912231 630.036804,1094.391357 
	C630.065247,1107.983765 635.450806,1113.307983 649.223389,1113.767334 
	C653.515869,1113.910522 657.876526,1113.515991 662.133911,1112.883179 
	C670.233215,1111.679565 674.431824,1107.057251 675.105103,1098.840210 
	C675.458252,1094.530029 675.541077,1090.191040 675.581177,1085.863403 
	C675.653320,1078.075195 675.601501,1070.285767 675.601501,1061.999390 
	C686.668274,1061.999390 697.291748,1062.079834 707.913513,1061.982056 
	C727.635620,1061.800659 744.363586,1053.883911 757.843323,1040.156860 
	C786.116577,1011.364807 781.428894,958.047424 744.330872,936.146362 
M792.891541,1041.500000 
	C792.909668,1059.153320 792.812683,1076.807861 792.983643,1094.459717 
	C793.112610,1107.768066 797.890991,1112.700195 811.221802,1113.768433 
	C813.869263,1113.980469 816.562988,1113.994995 819.209290,1113.780029 
	C833.827515,1112.591675 837.983154,1108.110474 838.306946,1093.286743 
	C838.401489,1088.958496 838.371277,1084.627197 838.378906,1080.297363 
	C838.389404,1074.342529 838.381470,1068.387695 838.381470,1061.998291 
	C849.525208,1061.998291 860.146423,1062.069214 870.766418,1061.982788 
	C890.484314,1061.822388 907.396362,1054.074951 920.640991,1040.163330 
	C939.692322,1020.152527 943.594421,995.837158 934.853271,970.108948 
	C926.174500,944.564270 906.638916,929.483459 880.761536,926.439392 
	C857.114441,923.657593 832.902161,925.041260 808.964905,925.635498 
	C797.167786,925.928284 793.017517,931.554138 792.977295,943.572571 
	C792.869202,975.881470 792.909851,1008.190796 792.891541,1041.500000 
z"/>
<path fill="#B952E9" opacity="1.000000" stroke="none" 
	d="
M840.010864,655.955322 
	C826.455994,636.544556 819.075684,615.038635 816.310730,592.182983 
	C809.308228,534.297852 820.666626,480.227875 852.553589,431.090088 
	C863.974548,413.490326 878.317261,398.394623 896.924805,387.991547 
	C927.575745,370.855164 959.081726,377.611023 979.951111,405.820557 
	C994.144897,425.006470 1001.827942,446.901550 1004.816467,470.293701 
	C1011.839294,525.264038 1001.659973,576.988770 973.362183,624.762146 
	C961.626526,644.574768 946.951782,662.118347 926.718750,673.873840 
	C893.559082,693.139709 863.394409,686.793274 840.010864,655.955322 
z"/>
<path fill="#B952E9" opacity="1.000000" stroke="none" 
	d="
M551.592285,471.710815 
	C558.071899,447.996552 567.500916,426.438843 586.582886,410.402649 
	C608.032593,392.376526 637.050903,389.611603 661.697937,403.043671 
	C689.639282,418.271088 708.339722,441.852844 721.360168,470.115234 
	C741.844238,514.578491 747.927979,560.812134 735.862305,608.747681 
	C731.604614,625.662964 724.647766,641.448730 713.841370,655.322937 
	C689.981812,685.956055 653.350464,692.100525 619.582092,670.832825 
	C594.052490,654.753967 576.833740,631.497681 565.012085,604.263367 
	C546.553772,561.739746 540.775879,517.711121 551.592285,471.710815 
z"/>
<path fill="#B952E9" opacity="1.000000" stroke="none" 
	d="
M460.172363,849.992188 
	C431.260864,844.744202 408.617645,829.402222 389.925995,808.194763 
	C358.170868,772.165710 340.505188,730.336182 341.089874,681.752136 
	C341.306488,663.752563 344.841492,646.370789 354.025665,630.518555 
	C369.047089,604.591187 396.914642,593.072327 425.881470,600.774841 
	C452.811432,607.935730 474.211670,623.681030 491.809998,644.576233 
	C521.199951,679.472168 537.775452,719.593079 537.747253,765.666443 
	C537.734985,785.726318 533.886841,805.108948 522.541443,822.260559 
	C507.783234,844.571472 486.707642,852.945068 460.172363,849.992188 
z"/>
<path fill="#B952E9" opacity="1.000000" stroke="none" 
	d="
M1042.608643,748.718201 
	C1049.308838,708.233459 1065.267944,672.905396 1095.636597,645.111694 
	C1108.206299,633.607910 1122.588257,625.016602 1139.675415,621.984924 
	C1162.580200,617.921143 1181.767700,625.090271 1197.137207,642.220459 
	C1212.321777,659.144653 1220.061157,679.665894 1222.763184,701.829163 
	C1228.820190,751.514709 1217.325684,797.070923 1187.881226,837.644775 
	C1175.839478,854.238098 1161.092285,868.116211 1141.767944,876.350403 
	C1109.322388,890.175781 1077.593628,880.367432 1059.097168,850.401306 
	C1043.485107,825.108215 1038.936890,797.199280 1040.509155,768.002258 
	C1040.848511,761.698547 1041.826172,755.429077 1042.608643,748.718201 
z"/>
<path fill="#FFF101" opacity="1.000000" stroke="none" 
	d="
M744.631409,936.349976 
	C781.428894,958.047424 786.116577,1011.364807 757.843323,1040.156860 
	C744.363586,1053.883911 727.635620,1061.800659 707.913513,1061.982056 
	C697.291748,1062.079834 686.668274,1061.999390 675.601501,1061.999390 
	C675.601501,1070.285767 675.653320,1078.075195 675.581177,1085.863403 
	C675.541077,1090.191040 675.458252,1094.530029 675.105103,1098.840210 
	C674.431824,1107.057251 670.233215,1111.679565 662.133911,1112.883179 
	C657.876526,1113.515991 653.515869,1113.910522 649.223389,1113.767334 
	C635.450806,1113.307983 630.065247,1107.983765 630.036804,1094.391357 
	C629.931152,1043.912231 629.953796,993.432556 630.031494,942.953247 
	C630.048645,931.818909 634.210388,926.976318 645.179077,925.666992 
	C651.433655,924.920349 657.808533,925.063965 664.130615,925.024048 
	C677.458008,924.939758 690.792297,925.247070 704.112732,924.931519 
	C718.732605,924.585205 732.059998,928.337219 744.631409,936.349976 
M717.957703,973.290649 
	C704.188904,968.202271 690.013489,972.207214 675.852173,970.610901 
	C675.852173,986.152588 675.852173,1000.887817 675.852173,1016.152222 
	C686.547729,1016.152222 696.998840,1016.227478 707.448425,1016.131470 
	C718.369019,1016.031067 727.330078,1009.612061 729.796143,1000.324890 
	C732.790283,989.049316 728.862671,979.694214 717.957703,973.290649 
z"/>
<path fill="#FFF101" opacity="1.000000" stroke="none" 
	d="
M792.891479,1041.000000 
	C792.909851,1008.190796 792.869202,975.881470 792.977295,943.572571 
	C793.017517,931.554138 797.167786,925.928284 808.964905,925.635498 
	C832.902161,925.041260 857.114441,923.657593 880.761536,926.439392 
	C906.638916,929.483459 926.174500,944.564270 934.853271,970.108948 
	C943.594421,995.837158 939.692322,1020.152527 920.640991,1040.163330 
	C907.396362,1054.074951 890.484314,1061.822388 870.766418,1061.982788 
	C860.146423,1062.069214 849.525208,1061.998291 838.381470,1061.998291 
	C838.381470,1068.387695 838.389404,1074.342529 838.378906,1080.297363 
	C838.371277,1084.627197 838.401489,1088.958496 838.306946,1093.286743 
	C837.983154,1108.110474 833.827515,1112.591675 819.209290,1113.780029 
	C816.562988,1113.994995 813.869263,1113.980469 811.221802,1113.768433 
	C797.890991,1112.700195 793.112610,1107.768066 792.983643,1094.459717 
	C792.812683,1076.807861 792.909668,1059.153320 792.891479,1041.000000 
M838.372437,988.501587 
	C838.372437,997.612000 838.372437,1006.722473 838.372437,1016.129211 
	C849.852844,1016.129211 860.671448,1016.261230 871.485291,1016.091553 
	C882.000061,1015.926575 891.156982,1008.603882 892.989380,999.255859 
	C895.417358,986.869080 890.757996,977.467407 879.633362,972.851013 
	C877.082886,971.792542 874.217468,971.020569 871.480408,970.967468 
	C860.568176,970.755859 849.649353,970.880249 838.372681,970.880249 
	C838.372681,976.884216 838.372681,982.193420 838.372437,988.501587 
z"/>
<path fill="#B952E9" opacity="1.000000" stroke="none" 
	d="
M718.285156,973.488892 
	C728.862671,979.694214 732.790283,989.049316 729.796143,1000.324890 
	C727.330078,1009.612061 718.369019,1016.031067 707.448425,1016.131470 
	C696.998840,1016.227478 686.547729,1016.152222 675.852173,1016.152222 
	C675.852173,1000.887817 675.852173,986.152588 675.852173,970.610901 
	C690.013489,972.207214 704.188904,968.202271 718.285156,973.488892 
z"/>
<path fill="#BA54E7" opacity="1.000000" stroke="none" 
	d="
M838.372559,988.002075 
	C838.372681,982.193420 838.372681,976.884216 838.372681,970.880249 
	C849.649353,970.880249 860.568176,970.755859 871.480408,970.967468 
	C874.217468,971.020569 877.082886,971.792542 879.633362,972.851013 
	C890.757996,977.467407 895.417358,986.869080 892.989380,999.255859 
	C891.156982,1008.603882 882.000061,1015.926575 871.485291,1016.091553 
	C860.671448,1016.261230 849.852844,1016.129211 838.372437,1016.129211 
	C838.372437,1006.722473 838.372437,997.612000 838.372559,988.002075 
z"/>
</svg>
